<?xml version="1.0" encoding="iso-8859-1"?>
<!-- Uploaded to: SVG Repo, www.svgrepo.com, Generator: SVG Repo Mixer Tools -->
<!DOCTYPE svg PUBLIC "-//W3C//DTD SVG 1.1//EN" "http://www.w3.org/Graphics/SVG/1.1/DTD/svg11.dtd">
<svg fill="#000000" height="800px" width="800px" version="1.1" id="Capa_1" xmlns="http://www.w3.org/2000/svg" xmlns:xlink="http://www.w3.org/1999/xlink" 
	 viewBox="0 0 367.905 367.905" xml:space="preserve">
<g>
	<g>
		<g>
			<path d="M98.784,0c-6.557,0-13.473,0.987-20.557,2.937c-27.684,7.615-47.805,23.332-59.805,46.713
				C-0.429,86.376,5.745,134.218,16.76,164.026c16.006,43.313,17.936,94.248,18.006,96.25c0.387,32.758,7.283,59.902,19.945,78.506
				c12.965,19.053,31.602,29.123,53.895,29.123c3.334,0,6.781-0.23,10.248-0.686c46.91-6.152,59.234-55.713,55.125-100.043
				c-2.916-31.414-4.33-53.484,3.01-108.943c5.604-42.368-3.369-104.43-31.033-135.992C133.02,7.482,117.149,0,98.784,0z
				 M108.606,353.905c-13.428,0-24.924-4.693-34.156-13.486c10.246,4.721,22.766,8.625,36.156,8.625
				c2.762,0,5.563-0.166,8.385-0.525c8.951-1.139,17.314-4.119,25.063-8.869c-6.387,7.029-15.119,12.129-27.02,13.689
				C114.168,353.716,111.333,353.905,108.606,353.905z M117.293,334.622c-30.297,3.902-59.211-20.715-59.625-21.072
				c-0.066-0.057-0.135-0.104-0.203-0.158c-5.439-14.426-9.91-55.787-11.67-86.641c0.822-0.953,13.35-72.672,61.912-112.008
				c40.605,3.75,53.053,36.338,55.211,43.139c-7.686,58.738-5.459,82.795-2.881,110.588c0.697,7.52,1.43,22.084-1.146,37.084
				c-0.449,0.387-0.861,0.832-1.213,1.344C146.434,323.292,132.846,332.62,117.293,334.622z M30.877,56.043
				c10.137-19.75,27.316-33.076,51.063-39.608C87.813,14.819,93.481,14,98.784,14c14.154,0,26.484,5.878,36.643,17.47
				c12.305,14.038,20.637,35.991,25.143,59.422C142.471,77,119.092,72.778,109.252,71.569c-2.221-11.671-5.459-23.686-10.115-31.655
				c-1.951-3.339-6.238-4.465-9.576-2.514c-3.338,1.95-4.463,6.237-2.512,9.575c3.496,5.983,6.166,15.622,8.145,25.668
				c-13.006,7.083-46.412,29.473-67.199,81.031C19.208,126.436,15.192,86.603,30.877,56.043z M162.952,113.46l0.035,15.818
				c-0.008-0.008-0.016-0.018-0.021-0.027c-8.799-11.086-24.369-24.426-49.713-27.975c-0.326-3.769-0.859-9.121-1.676-15.217
				C124.547,88.174,150.397,94.64,162.952,113.46z M97.055,87.881l1.223,16.482c-31.654,25.915-48.535,62.257-57.02,87.491
				l-4.52-21.41C53.124,121.233,82.409,97.251,97.055,87.881z"/>
		</g>
		<g>
			<path d="M221.95,22.241c-27.664,31.563-36.637,93.624-31.033,135.992c7.34,55.459,5.926,77.529,3.01,108.943
				c-4.109,44.33,8.213,93.891,55.125,100.043c3.467,0.455,6.914,0.686,10.246,0.686c22.295,0,40.932-10.07,53.896-29.123
				c12.662-18.603,19.557-45.748,19.945-78.506c0.068-2.002,2-52.938,18.006-96.25c11.016-29.809,17.189-77.65-1.662-114.377
				c-12.002-23.381-32.123-39.098-59.805-46.713C282.594,0.987,275.678,0,269.122,0C250.756,0,234.885,7.482,221.95,22.241z
				 M250.872,353.339c-11.9-1.561-20.633-6.66-27.02-13.689c7.746,4.75,16.111,7.73,25.063,8.869
				c2.822,0.359,5.623,0.525,8.385,0.525c13.391,0,25.91-3.904,36.156-8.625c-9.232,8.793-20.728,13.486-34.158,13.486
				C256.571,353.905,253.737,353.716,250.872,353.339z M209.012,305.554c-2.576-15-1.844-29.565-1.146-37.084
				c2.58-27.793,4.805-51.85-2.879-110.588c2.158-6.801,14.605-39.389,55.211-43.139c48.56,39.336,61.09,111.055,61.912,112.008
				c-1.76,30.854-6.23,72.215-11.672,86.641c-0.066,0.055-0.137,0.102-0.201,0.158c-0.414,0.357-29.328,24.975-59.625,21.072
				C250.612,334.622,215.702,328.952,209.012,305.554z M339.911,153.675c-20.789-51.559-54.193-73.948-67.199-81.031
				c1.977-10.046,4.648-19.685,8.145-25.668c1.949-3.338,0.824-7.625-2.514-9.575c-3.336-1.951-7.623-0.825-9.574,2.514
				c-4.656,7.97-7.896,19.984-10.115,31.655c-9.842,1.209-33.219,5.431-51.316,19.322c4.506-23.431,12.836-45.384,25.141-59.422
				C242.637,19.878,254.965,14,269.122,14c5.303,0,10.969,0.819,16.844,2.434c23.746,6.532,40.926,19.858,51.063,39.608
				C352.713,86.603,348.696,126.436,339.911,153.675z M204.94,129.251c-0.008,0.01-0.016,0.02-0.021,0.027l0.035-15.818
				c12.553-18.82,38.402-25.286,51.375-27.4c-0.816,6.096-1.352,11.448-1.676,15.217 M331.165,170.444l-4.518,21.41
				c-8.484-25.234-25.365-61.576-57.02-87.491l1.223-16.482C285.497,97.251,314.782,121.233,331.165,170.444z"/>
		</g>
	</g>
</g>
</svg>