<?xml version="1.0" encoding="UTF-8" standalone="no"?>
<!-- Created with Inkscape (http://www.inkscape.org/) -->

<svg
   version="1.1"
   id="svg2219"
   xml:space="preserve"
   width="205.06714"
   height="35.039963"
   xmlns:inkscape="http://www.inkscape.org/namespaces/inkscape"
   xmlns:sodipodi="http://sodipodi.sourceforge.net/DTD/sodipodi-0.dtd"
   xmlns="http://www.w3.org/2000/svg"
   xmlns:svg="http://www.w3.org/2000/svg"><defs
     id="defs2223"><inkscape:path-effect
       effect="fillet_chamfer"
       id="path-effect1091"
       is_visible="true"
       lpeversion="1"
       satellites_param="F,0,0,1,0,0,0,1 @ F,0,0,1,0,2.4887387,0,1 @ F,0,0,1,0,0,0,1 @ F,0,0,1,0,0,0,1"
       unit="px"
       method="auto"
       mode="F"
       radius="0"
       chamfer_steps="1"
       flexible="false"
       use_knot_distance="true"
       apply_no_radius="true"
       apply_with_radius="true"
       only_selected="false"
       hide_knots="false"
       nodesatellites_param="F,0,0,1,0,0,0,1 @ F,0,0,1,0,2.4887387,0,1 @ F,0,0,1,0,0,0,1 @ F,0,0,1,0,0,0,1" /></defs><sodipodi:namedview
     id="namedview2221"
     pagecolor="#505050"
     bordercolor="#eeeeee"
     borderopacity="1"
     inkscape:showpageshadow="0"
     inkscape:pageopacity="0"
     inkscape:pagecheckerboard="0"
     inkscape:deskcolor="#505050" /><inkscape:clipboard
     style="font-variation-settings:normal;opacity:1;vector-effect:none;fill:#04113a;fill-opacity:1;stroke-width:1.22515324;stroke-linecap:butt;stroke-linejoin:miter;stroke-miterlimit:4;stroke-dasharray:none;stroke-dashoffset:0;stroke-opacity:1;-inkscape-stroke:none;stop-color:#000000;stop-opacity:1"
     min="115.6446,261.70339"
     max="320.71174,296.74335"
     geom-min="115.6446,261.70339"
     geom-max="320.71174,296.74335" /><g
     id="g2226"
     transform="matrix(3.7795276,0,0,3.7795276,-115.64461,-261.70339)"><g
       id="g1069"
       transform="matrix(0.50802838,0,0,0.50802838,-232.19575,31.577134)"
       inkscape:export-filename="light_logo.svg"
       inkscape:export-xdpi="96"
       inkscape:export-ydpi="96"><path
         d="M 619.71007,90.215563 C 619.71007,91.409733 620.6893,92.388953 621.88347,92.388953 623.10152,92.388953 624.08075,91.409733 624.08075,90.215563 624.08075,89.021393 623.10152,88.042163 621.88347,88.042163 620.6893,88.042163 619.71007,89.021393 619.71007,90.215563 Z"
         id="path1049"
         style="font-size:24.8768px;line-height:1.25;font-family:'Circular Std Bold';-inkscape-font-specification:'Circular Std Bold, ';letter-spacing:0.515938px;fill:#ffbd0e;fill-opacity:1;stroke-width:0.597088" /><g
         aria-label="inventiff."
         id="g1067"
         style="font-size:24.8768px;line-height:1.25;font-family:'Plus Jakarta Sans';-inkscape-font-specification:'Plus Jakarta Sans';letter-spacing:0.127px;word-spacing:0px;fill:#04113a;fill-opacity:1;stroke-width:0.638065"
         transform="translate(-87.597856,-23.390428)"><path
           style="font-weight:bold;font-family:'DM Sans';-inkscape-font-specification:'DM Sans Bold';fill:#04113a;fill-opacity:1"
           d="M 604.87877,115.44158 V 105.59143 A 2.4887387,2.4887387 135 0 1 607.36751,103.10269 H 608.063 V 115.44158 Z"
           id="path1051"
           inkscape:path-effect="#path-effect1091"
           inkscape:original-d="M 604.87877,115.44158 V 103.10269 H 608.063 V 115.44158 Z" /><path
           d="M 611.52345,115.44158 V 103.10269 H 614.33452 L 614.58329,105.19234 Q 615.15546,104.09776 616.22516,103.45096 617.31974,102.80417 618.78747,102.80417 621.07614,102.80417 622.34485,104.24702 623.61357,105.68988 623.61357,108.47608 V 115.44158 H 620.42934 V 108.7746 Q 620.42934,107.18248 619.78254,106.33667 619.13575,105.49086 617.76752,105.49086 616.42417,105.49086 615.55349,106.43618 614.70768,107.3815 614.70768,109.07312 V 115.44158 Z"
           style="font-weight:bold;font-family:'DM Sans';-inkscape-font-specification:'DM Sans Bold';fill:#04113a;fill-opacity:1"
           id="path1053" /><path
           d="M 629.98462,115.44158 625.45704,103.10269 H 628.79053 L 631.92501,112.43149 635.05948,103.10269 H 638.39297 L 633.84052,115.44158 Z"
           style="font-weight:bold;font-family:'DM Sans';-inkscape-font-specification:'DM Sans Bold';fill:#04113a;fill-opacity:1"
           id="path1055" /><path
           d="M 645.93324,115.7401 Q 644.06748,115.7401 642.62463,114.94405 641.18177,114.14799 640.36084,112.70513 639.53991,111.26228 639.53991,109.37164 639.53991,107.45613 640.33596,105.96352 641.1569,104.47091 642.57487,103.64998 644.01773,102.80417 645.95812,102.80417 647.77413,102.80417 649.16723,103.60022 650.56033,104.39628 651.33151,105.78938 652.12757,107.15761 652.12757,108.84923 652.12757,109.12287 652.10267,109.4214 652.10267,109.71992 652.07777,110.04332 H 642.69922 Q 642.79872,111.48617 643.69429,112.3071 644.61473,113.12804 645.90833,113.12804 646.87852,113.12804 647.52532,112.70513 648.19699,112.25735 648.52039,111.5608 H 651.75437 Q 651.4061,112.73001 650.58516,113.70021 649.78911,114.64552 648.59502,115.19281 647.42581,115.7401 645.9332,115.7401 Z M 645.95814,105.39135 Q 644.78893,105.39135 643.89337,106.06303 642.9978,106.70982 642.74903,108.05317 H 648.8936 Q 648.819,106.83421 647.99804,106.11278 647.1771,105.39135 645.95814,105.39135 Z"
           style="font-weight:bold;font-family:'DM Sans';-inkscape-font-specification:'DM Sans Bold';fill:#04113a;fill-opacity:1"
           id="path1057" /><path
           d="M 654.94125,115.44158 V 103.10269 H 657.75233 L 658.0011,105.19234 Q 658.57327,104.09776 659.64297,103.45096 660.73755,102.80417 662.20528,102.80417 664.49394,102.80417 665.76266,104.24702 667.03138,105.68988 667.03138,108.47608 V 115.44158 H 663.84715 V 108.7746 Q 663.84715,107.18248 663.20035,106.33667 662.55355,105.49086 661.18533,105.49086 659.84198,105.49086 658.97129,106.43618 658.12548,107.3815 658.12548,109.07312 V 115.44158 Z"
           style="font-weight:bold;font-family:'DM Sans';-inkscape-font-specification:'DM Sans Bold';fill:#04113a;fill-opacity:1"
           id="path1059" /><path
           d="M 675.69111,115.44158 C 674.39752,115.44158 673.36098,115.12647 672.58151,114.49626 671.80204,113.86605 671.4123,112.74659 671.4123,111.1379 V 105.76451 H 669.29777 V 103.10269 C 671.66059,103.09769 671.75002,102.10974 671.78545,99.794074 H 674.59653 V 103.10269 H 677.93002 V 105.76451 H 674.59653 V 111.16277 C 674.59653,111.75982 674.72092,112.17443 674.96969,112.40661 675.23504,112.62221 675.68282,112.73001 676.31303,112.73001 H 677.85539 V 115.44158 Z"
           style="font-weight:bold;font-family:'DM Sans';-inkscape-font-specification:'DM Sans Bold';fill:#04113a;fill-opacity:1"
           id="path1061"
           sodipodi:nodetypes="ssscccccccccscsccs" /><path
           style="font-weight:bold;font-family:'DM Sans';-inkscape-font-specification:'DM Sans Bold';fill:#ffbd0e;fill-opacity:1;stroke-width:0.718537"
           d="M 680.53466,114.76292 684.58454,99.648594 687.66027,100.47273 683.61039,115.58706 Z"
           id="path1063" /><path
           id="path1065"
           style="font-weight:bold;font-family:'DM Sans';-inkscape-font-specification:'DM Sans Bold';fill:#ffbd0e;fill-opacity:1;stroke-width:0.638064"
           d="M 695.51398,97.53042 C 694.22038,97.53042 693.19179,97.845369 692.42889,98.475583 691.68258,99.105794 691.30959,100.16727 691.30959,101.65988 V 103.10269 H 689.61822 V 105.76454 H 691.30959 V 115.44147 H 694.49388 V 105.76454 H 697.61774 699.30911 V 115.44147 H 702.4934 V 105.76454 H 705.15527 V 103.10269 H 702.4934 V 101.65988 C 702.4934,101.14576 702.60953,100.78097 702.8417,100.56538 703.0739,100.34978 703.46334,100.24188 704.01063,100.24188 H 704.88137 V 97.53042 H 703.5135 C 702.2199,97.53042 701.19131,97.845369 700.42841,98.475583 699.68212,99.105794 699.30911,100.16728 699.30911,101.65988 V 103.10269 H 697.61774 694.49388 V 101.65988 C 694.49388,101.14576 694.61001,100.78097 694.84218,100.56538 695.07438,100.34978 695.46435,100.24188 696.01164,100.24188 H 696.88185 V 97.53042 Z" /></g></g></g></svg>
