<?xml version="1.0" encoding="UTF-8" standalone="no"?>
<!-- Created with Inkscape (http://www.inkscape.org/) -->

<svg
   version="1.1"
   id="svg2056"
   xml:space="preserve"
   width="205.62279"
   height="35.136845"
   xmlns:inkscape="http://www.inkscape.org/namespaces/inkscape"
   xmlns:sodipodi="http://sodipodi.sourceforge.net/DTD/sodipodi-0.dtd"
   xmlns="http://www.w3.org/2000/svg"
   xmlns:svg="http://www.w3.org/2000/svg"><defs
     id="defs2060"><inkscape:path-effect
       effect="fillet_chamfer"
       id="path-effect139066"
       is_visible="true"
       lpeversion="1"
       satellites_param="F,0,0,1,0,0,0,1 @ F,0,0,1,0,2.4887387,0,1 @ F,0,0,1,0,0,0,1 @ F,0,0,1,0,0,0,1"
       unit="px"
       method="auto"
       mode="F"
       radius="0"
       chamfer_steps="1"
       flexible="false"
       use_knot_distance="true"
       apply_no_radius="true"
       apply_with_radius="true"
       only_selected="false"
       hide_knots="false"
       nodesatellites_param="F,0,0,1,0,0,0,1 @ F,0,0,1,0,2.4887387,0,1 @ F,0,0,1,0,0,0,1 @ F,0,0,1,0,0,0,1" /></defs><sodipodi:namedview
     id="namedview2058"
     pagecolor="#505050"
     bordercolor="#eeeeee"
     borderopacity="1"
     inkscape:showpageshadow="0"
     inkscape:pageopacity="0"
     inkscape:pagecheckerboard="0"
     inkscape:deskcolor="#505050" /><inkscape:clipboard
     style="font-variation-settings:normal;opacity:1;vector-effect:none;fill:#ffbd0e;fill-opacity:1;stroke-width:1.22853875;stroke-linecap:butt;stroke-linejoin:miter;stroke-miterlimit:4;stroke-dasharray:none;stroke-dashoffset:0;stroke-opacity:1;-inkscape-stroke:none;stop-color:#000000;stop-opacity:1"
     min="472.60638,261.60547"
     max="678.22916,296.74231"
     geom-min="472.60638,261.60547"
     geom-max="678.22916,296.74231" /><g
     id="g2063"
     transform="matrix(3.7795276,0,0,3.7795276,-472.60638,-261.60547)"><g
       id="g139062"
       transform="matrix(0.50943303,0,0,0.50943303,-138.47621,-19.06063)"
       inkscape:export-filename="dark_logo.svg"
       inkscape:export-xdpi="96"
       inkscape:export-ydpi="96"><path
         d="M 619.70417,189.36052 C 619.70417,190.55469 620.6834,191.53391 621.87757,191.53391 623.09562,191.53391 624.07485,190.55469 624.07485,189.36052 624.07485,188.16635 623.09562,187.18712 621.87757,187.18712 620.6834,187.18712 619.70417,188.16635 619.70417,189.36052 Z"
         id="path139044"
         style="font-size:24.8768px;line-height:1.25;font-family:'Circular Std Bold';-inkscape-font-specification:'Circular Std Bold, ';letter-spacing:0.515938px;fill:#ffbd0e;fill-opacity:1;stroke-width:0.597088" /><path
         style="font-weight:bold;font-size:24.8768px;line-height:1.25;font-family:'DM Sans';-inkscape-font-specification:'DM Sans Bold';letter-spacing:0.127px;word-spacing:0px;fill:#f5f5f5;fill-opacity:1;stroke-width:0.638065"
         d="M 517.28091,191.19611 V 181.34596 A 2.4887387,2.4887387 135 0 1 519.76965,178.85722 H 520.46514 V 191.19611 Z"
         id="path139046"
         inkscape:path-effect="#path-effect139066"
         inkscape:original-d="M 517.28091,191.19611 V 178.85722 H 520.46514 V 191.19611 Z" /><path
         d="M 523.92559,191.19611 V 178.85722 H 526.73666 L 526.98543,180.94687 Q 527.5576,179.85229 528.6273,179.20549 529.72188,178.5587 531.18961,178.5587 533.47828,178.5587 534.74699,180.00155 536.01571,181.44441 536.01571,184.23061 V 191.19611 H 532.83148 V 184.52913 Q 532.83148,182.93701 532.18468,182.0912 531.53789,181.24539 530.16966,181.24539 528.82631,181.24539 527.95563,182.19071 527.10982,183.13603 527.10982,184.82765 V 191.19611 Z"
         style="font-weight:bold;font-size:24.8768px;line-height:1.25;font-family:'DM Sans';-inkscape-font-specification:'DM Sans Bold';letter-spacing:0.127px;word-spacing:0px;fill:#f5f5f5;fill-opacity:1;stroke-width:0.638065"
         id="path139048" /><path
         d="M 542.38676,191.19611 537.85918,178.85722 H 541.19267 L 544.32715,188.18602 547.46162,178.85722 H 550.79511 L 546.24266,191.19611 Z"
         style="font-weight:bold;font-size:24.8768px;line-height:1.25;font-family:'DM Sans';-inkscape-font-specification:'DM Sans Bold';letter-spacing:0.127px;word-spacing:0px;fill:#f5f5f5;fill-opacity:1;stroke-width:0.638065"
         id="path139050" /><path
         d="M 558.33538,191.49463 Q 556.46962,191.49463 555.02677,190.69858 553.58391,189.90252 552.76298,188.45966 551.94205,187.01681 551.94205,185.12617 551.94205,183.21066 552.7381,181.71805 553.55904,180.22544 554.97701,179.40451 556.41987,178.5587 558.36026,178.5587 560.17627,178.5587 561.56937,179.35475 562.96247,180.15081 563.73365,181.54391 564.52971,182.91214 564.52971,184.60376 564.52971,184.8774 564.50481,185.17593 564.50481,185.47445 564.47991,185.79785 H 555.10136 Q 555.20086,187.2407 556.09643,188.06163 557.01687,188.88257 558.31047,188.88257 559.28066,188.88257 559.92746,188.45966 560.59913,188.01188 560.92253,187.31533 H 564.15651 Q 563.80824,188.48454 562.9873,189.45474 562.19125,190.40005 560.99716,190.94734 559.82795,191.49463 558.33534,191.49463 Z M 558.36028,181.14588 Q 557.19107,181.14588 556.29551,181.81756 555.39994,182.46435 555.15117,183.8077 H 561.29574 Q 561.22114,182.58874 560.40018,181.86731 559.57924,181.14588 558.36028,181.14588 Z"
         style="font-weight:bold;font-size:24.8768px;line-height:1.25;font-family:'DM Sans';-inkscape-font-specification:'DM Sans Bold';letter-spacing:0.127px;word-spacing:0px;fill:#f5f5f5;fill-opacity:1;stroke-width:0.638065"
         id="path139052" /><path
         d="M 567.34339,191.19611 V 178.85722 H 570.15447 L 570.40324,180.94687 Q 570.97541,179.85229 572.04511,179.20549 573.13969,178.5587 574.60742,178.5587 576.89608,178.5587 578.1648,180.00155 579.43352,181.44441 579.43352,184.23061 V 191.19611 H 576.24929 V 184.52913 Q 576.24929,182.93701 575.60249,182.0912 574.95569,181.24539 573.58747,181.24539 572.24412,181.24539 571.37343,182.19071 570.52762,183.13603 570.52762,184.82765 V 191.19611 Z"
         style="font-weight:bold;font-size:24.8768px;line-height:1.25;font-family:'DM Sans';-inkscape-font-specification:'DM Sans Bold';letter-spacing:0.127px;word-spacing:0px;fill:#f5f5f5;fill-opacity:1;stroke-width:0.638065"
         id="path139054" /><path
         d="M 588.09325,191.19611 C 586.79966,191.19611 585.76312,190.881 584.98365,190.25079 584.20418,189.62058 583.81444,188.50112 583.81444,186.89243 V 181.51904 H 581.69991 V 178.85722 C 584.06273,178.85222 584.15216,177.86427 584.18759,175.5486 H 586.99867 V 178.85722 H 590.33216 V 181.51904 H 586.99867 V 186.9173 C 586.99867,187.51435 587.12306,187.92896 587.37183,188.16114 587.63718,188.37674 588.08496,188.48454 588.71517,188.48454 H 590.25753 V 191.19611 Z"
         style="font-weight:bold;font-size:24.8768px;line-height:1.25;font-family:'DM Sans';-inkscape-font-specification:'DM Sans Bold';letter-spacing:0.127px;word-spacing:0px;fill:#f5f5f5;fill-opacity:1;stroke-width:0.638065"
         id="path139056"
         sodipodi:nodetypes="ssscccccccccscsccs" /><path
         style="font-weight:bold;font-size:24.8768px;line-height:1.25;font-family:'DM Sans';-inkscape-font-specification:'DM Sans Bold';letter-spacing:0.127px;word-spacing:0px;fill:#ffbd0e;fill-opacity:1;stroke-width:0.718537"
         d="M 592.9368,190.51745 596.98668,175.40312 600.06241,176.22726 596.01253,191.34159 Z"
         id="path139058" /><path
         id="path139060"
         style="font-weight:bold;font-size:24.8768px;line-height:1.25;font-family:'DM Sans';-inkscape-font-specification:'DM Sans Bold';letter-spacing:0.127px;word-spacing:0px;fill:#ffbd0e;fill-opacity:1;stroke-width:0.638064"
         d="M 607.91612,173.28495 C 606.62252,173.28495 605.59393,173.5999 604.83103,174.23011 604.08472,174.86032 603.71173,175.9218 603.71173,177.41441 V 178.85722 H 602.02036 V 181.51907 H 603.71173 V 191.196 H 606.89602 V 181.51907 H 610.01988 611.71125 V 191.196 H 614.89554 V 181.51907 H 617.55741 V 178.85722 H 614.89554 V 177.41441 C 614.89554,176.90029 615.01167,176.5355 615.24384,176.31991 615.47604,176.10431 615.86548,175.99641 616.41277,175.99641 H 617.28351 V 173.28495 H 615.91564 C 614.62204,173.28495 613.59345,173.5999 612.83055,174.23011 612.08426,174.86032 611.71125,175.92181 611.71125,177.41441 V 178.85722 H 610.01988 606.89602 V 177.41441 C 606.89602,176.90029 607.01215,176.5355 607.24432,176.31991 607.47652,176.10431 607.86649,175.99641 608.41378,175.99641 H 609.28399 V 173.28495 Z" /></g></g></svg>
